<?xml version="1.0" encoding="utf-8"?>
<!-- Generator: Adobe Illustrator 16.0.3, SVG Export Plug-In . SVG Version: 6.00 Build 0)  -->
<!DOCTYPE svg PUBLIC "-//W3C//DTD SVG 1.1//EN" "http://www.w3.org/Graphics/SVG/1.1/DTD/svg11.dtd">
<svg version="1.1" id="Layer_1" xmlns="http://www.w3.org/2000/svg" xmlns:xlink="http://www.w3.org/1999/xlink" x="0px" y="0px"
	 width="479.976px" height="422.978px" viewBox="0 0 479.976 422.978" enable-background="new 0 0 479.976 422.978"
	 xml:space="preserve">
<g>
	<path fill-rule="evenodd" clip-rule="evenodd" fill="#231914" stroke="#231914" stroke-width="0.5669" stroke-miterlimit="10" d="
		M144.1,144.762c-74.382,0-134.71,59.929-134.71,133.677c0,73.863,60.329,133.792,134.71,133.792
		c69.815,0,127.331-52.727,134.009-120.321c0.35-1.276,0.469-2.669,0.469-4.064v-0.465c0.117-3.018,0.233-5.921,0.233-8.941
		c0-2.903-0.116-5.924-0.233-8.826V42.444c0-12.541-10.426-22.877-22.961-22.877h-10.775c-12.651,0-22.96,10.336-22.96,22.877
		V169.27l-0.118-0.117v105.568c0,0.465,0,0.932,0.118,1.395v4.762c-1.289,41.461-35.611,74.795-77.781,74.795
		c-42.874,0-77.779-34.61-77.779-77.233s34.905-77.117,77.779-77.117c7.264,0,14.292,0.931,20.968,2.789v-57.722
		C158.274,145.344,151.246,144.762,144.1,144.762L144.1,144.762z"/>
	<path fill-rule="evenodd" clip-rule="evenodd" fill="#231914" stroke="#231914" stroke-width="0.5669" stroke-miterlimit="10" d="
		M316.295,100.283v231.23c0,12.544,10.308,22.883,22.96,22.883h10.777c12.649,0,22.957-10.339,22.957-22.883v-231.23
		c0-12.544-10.308-22.881-22.957-22.881h-10.777C326.603,77.402,316.295,87.739,316.295,100.283L316.295,100.283z"/>
	<path fill-rule="evenodd" clip-rule="evenodd" fill="#231914" stroke="#231914" stroke-width="0.5669" stroke-miterlimit="10" d="
		M410.711,163.926v173.28c0,9.407,10.306,17.189,22.958,17.189h10.776c12.651,0,22.96-7.782,22.96-17.189v-173.28
		c0-9.406-10.309-17.188-22.96-17.188h-10.776C421.017,146.738,410.711,154.52,410.711,163.926L410.711,163.926z"/>
</g>
</svg>
